{"title":"Parameter durasi diabaikan","draft":false,"url":"/parameter-durasi-diabaikan-pup9g86i","votes":"4","answers_count":"1","categories":["Komputer"],"tags":["audio","ffmpeg"],"snippet":"Saya mengubah file FLAC ke AAC. Saya perhatikan bahwa durasinya matifile keluaran. Ini bahkan terjadi jika Anda secara eksplisit mengatur durasi keluaran, itu akan diterimadiabaikan  $ ffmpeg -i foo.flac -t...","body":"<p> Saya mengubah file FLAC ke AAC. Saya perhatikan bahwa durasinya mati\nfile keluaran. Ini bahkan terjadi jika Anda secara eksplisit mengatur durasi keluaran, itu akan diterima\ndiabaikan </p> <pre><code>$ ffmpeg -i foo.flac -t 00:02:52.48 -c:a aac -strict -2 bar.aac\n[flac @ 000000000035d960] max_analyze_duration 5000000 reached at 5015510 microseconds\n\nInput #0, flac, from 'foo.flac':\n  Duration: 00:02:52.48, bitrate: 446 kb/s\n    Stream #0:0: Audio: flac, 44100 Hz, stereo, s16\nOutput #0, adts, to 'bar.aac':\n    Stream #0:0: Audio: aac, 44100 Hz, stereo, fltp, 128 kb/s\nStream mapping:\n  Stream #0:0 -&gt; #0:0 (flac -&gt; aac)\nPress [q] to stop, [?] for help\nsize=    2770kB time=00:02:52.50 bitrate= 131.5kbits/s\nvideo:0kB audio:2719kB subtitle:0 global headers:0kB muxing overhead 1.867920%\n</code></pre> <p> hasil </p> <pre><code>$ ffmpeg -i foo.flac -i bar.aac    \nInput #0, flac, from 'foo.flac':\n  Duration: 00:02:52.48, bitrate: 446 kb/s\nInput #1, aac, from 'bar.aac':\n  Duration: 00:02:49.29, bitrate: 134 kb/s\n</code></pre> <p> Dapatkah saya mengubah perintah saya agar durasi input dan output cocok? </p>","source":"https://superuser.com/questions/570998/duration-parameter-being-ignored","author":"<a href=\"https://superuser.com/users/71001/steven-penny\" target=\"_blank\" rel=\"nofollow noopener\"><span itemprop=\"name\">Steven Penny</span></a>","replies":[],"answers":[{"answer":"<p> File AAC &#39;mentah&#39; tidak berisi informasi tentang konten file. Saat Anda mengaktifkan semua info debug, Anda dapat melihat bahwa waktu diukur bergantung pada bitrate saat mengimpor file aac: </p>\n\n<p> <code>[aac @ 0xa82ba40] Estimating duration from bitrate, this may be inaccurate</code> </p>\n\n<p> Tetapi, ketika Anda mengemas file aac Anda di mis. wadah MPEG-4, semua konten yang diinginkan disimpan dalam wadah. Coba enkode file audio flac Anda ke aac dan mux ke dalam kontainer .m4a menggunakan parameter berikut dan lihat apa yang terjadi jika Anda mengimpor file .m4a lagi: </p>\n\n<blockquote>\n  <p> ffmpeg -i foo.flac -t 00: 02: 52.48 -c: aac -strict -2 bar.m4a </p>\n</blockquote>","votes":"6","source":"https://superuser.com/a/571061","author":"<a href=\"https://superuser.com/users/207168/nick-van-tilborg\" target=\"_blank\" rel=\"nofollow noopener\"><span itemprop=\"name\">Nick van Tilborg</span></a>","replies":[{"reply":".m4a (yang secara harfiah merupakan file MP4 dengan nama berbeda) biasanya digunakan untuk file MP4 yang hanya berisi audio, dan ffmpeg mengenali output.m4a sebagai file MP4. +1 meskipun, jawaban yang bagus.","author":"<a href=\"https://superuser.com/users/180990/evilsoup\" target=\"_blank\" rel=\"nofollow noopener\">evilsoup</a>"},{"reply":"Terima kasih, Anda benar, saya mengedit jawaban saya agar sesuai dengan wadah MPEG4 yang tepat untuk audio saja.","author":"<a href=\"https://superuser.com/users/207168/nick-van-tilborg\" target=\"_blank\" rel=\"nofollow noopener\">Nick van Tilborg</a>"}]}]}
